<svg width="900" height="540" viewBox="0 0 900 540" fill="none" xmlns="http://www.w3.org/2000/svg">
  <rect width="900" height="540" fill="#F7F8FA"/>
  <rect x="0" y="370" width="900" height="170" fill="#0F172A"/>
  <rect x="86" y="315" width="360" height="52" rx="10" fill="#263241"/>
  <rect x="116" y="270" width="306" height="50" rx="9" fill="#364456"/>
  <rect x="146" y="226" width="250" height="50" rx="9" fill="#E5E7EB"/>
  <path d="M650 110V345" stroke="#C89B3C" stroke-width="10" stroke-linecap="round"/>
  <path d="M578 151H722" stroke="#C89B3C" stroke-width="10" stroke-linecap="round"/>
  <path d="M596 154L540 278M596 154L656 278" stroke="#8C6426" stroke-width="4"/>
  <path d="M704 154L644 278M704 154L760 278" stroke="#8C6426" stroke-width="4"/>
  <path d="M512 282C546 334 624 334 658 282H512Z" fill="#C89B3C"/>
  <path d="M642 282C676 334 754 334 788 282H642Z" fill="#C89B3C"/>
  <rect x="615" y="344" width="100" height="30" rx="8" fill="#8C6426"/>
  <path d="M44 450C122 424 196 424 276 450" stroke="#C89B3C" stroke-width="7" stroke-linecap="round"/>
</svg>
