<svg width="1200" height="800" viewBox="0 0 1200 800" fill="none" xmlns="http://www.w3.org/2000/svg">
  <defs>
    <linearGradient id="bg" x1="120" y1="48" x2="1050" y2="760" gradientUnits="userSpaceOnUse">
      <stop stop-color="#FFFDF8"/>
      <stop offset=".48" stop-color="#F4E8D2"/>
      <stop offset="1" stop-color="#E7D4AF"/>
    </linearGradient>
    <linearGradient id="desk" x1="0" y1="642" x2="1200" y2="642" gradientUnits="userSpaceOnUse">
      <stop stop-color="#7E5327"/>
      <stop offset=".52" stop-color="#B68A44"/>
      <stop offset="1" stop-color="#5A3B22"/>
    </linearGradient>
    <filter id="blur">
      <feGaussianBlur stdDeviation="18"/>
    </filter>
    <filter id="softShadow" x="-20%" y="-20%" width="140%" height="140%">
      <feDropShadow dx="0" dy="24" stdDeviation="24" flood-color="#0F172A" flood-opacity=".22"/>
    </filter>
  </defs>

  <rect width="1200" height="800" fill="url(#bg)"/>
  <circle cx="1000" cy="154" r="184" fill="#C89B3C" fill-opacity=".18" filter="url(#blur)"/>
  <circle cx="190" cy="210" r="160" fill="#FFFFFF" fill-opacity=".72" filter="url(#blur)"/>

  <g opacity=".34">
    <rect x="58" y="72" width="96" height="520" rx="18" fill="#F9F1E4"/>
    <rect x="176" y="110" width="64" height="488" rx="15" fill="#D6B16B"/>
    <rect x="263" y="88" width="86" height="520" rx="18" fill="#FFF8EA"/>
    <rect x="372" y="132" width="58" height="470" rx="14" fill="#B48B43"/>
    <rect x="958" y="84" width="70" height="510" rx="16" fill="#F8EBD5"/>
    <rect x="1050" y="122" width="78" height="486" rx="16" fill="#D2A75A"/>
  </g>

  <rect y="575" width="1200" height="225" fill="url(#desk)"/>
  <rect x="0" y="575" width="1200" height="30" fill="#FFFFFF" fill-opacity=".12"/>

  <g filter="url(#softShadow)">
    <rect x="138" y="455" width="440" height="72" rx="16" fill="#172033"/>
    <rect x="172" y="397" width="374" height="68" rx="15" fill="#263241"/>
    <rect x="206" y="337" width="306" height="72" rx="15" fill="#F7F1E7"/>
    <rect x="230" y="360" width="228" height="9" rx="4.5" fill="#D1B574"/>
    <rect x="230" y="384" width="154" height="9" rx="4.5" fill="#E1CFAB"/>
  </g>

  <g transform="translate(156 226) rotate(-17 150 160)" filter="url(#softShadow)">
    <rect x="84" y="150" width="270" height="44" rx="13" fill="#8B5B2F"/>
    <rect x="282" y="134" width="198" height="45" rx="16" fill="#6F4527"/>
    <rect x="274" y="100" width="82" height="82" rx="21" fill="#C89B3C"/>
    <path d="M300 111h116c21 0 38 17 38 38v4H300v-42Z" fill="#A87534"/>
    <path d="M99 170h218" stroke="#F3D99D" stroke-opacity=".45" stroke-width="4" stroke-linecap="round"/>
  </g>

  <g filter="url(#softShadow)">
    <path d="M772 150v382" stroke="#C89B3C" stroke-width="16" stroke-linecap="round"/>
    <path d="M640 224h264" stroke="#C89B3C" stroke-width="16" stroke-linecap="round"/>
    <path d="M772 130c38 0 70-22 82-52-52 20-110 20-162 0 12 30 44 52 82 52Z" fill="#C89B3C"/>
    <path d="M668 230 562 452M668 230l106 222" stroke="#8C6426" stroke-width="6" stroke-linecap="round"/>
    <path d="M878 230 772 452M878 230l106 222" stroke="#8C6426" stroke-width="6" stroke-linecap="round"/>
    <path d="M520 460c48 74 152 74 200 0H520Z" fill="#C89B3C"/>
    <path d="M762 460c48 74 152 74 200 0H762Z" fill="#C89B3C"/>
    <rect x="720" y="528" width="104" height="36" rx="10" fill="#C89B3C"/>
    <rect x="652" y="562" width="240" height="56" rx="17" fill="#8C6426"/>
    <path d="M626 648c118-56 240-56 356 0" stroke="#C89B3C" stroke-width="10" stroke-linecap="round"/>
  </g>

  <rect x="84" y="118" width="258" height="300" rx="28" fill="#FFFFFF" fill-opacity=".52"/>
  <rect x="122" y="158" width="168" height="10" rx="5" fill="#D4B878"/>
  <rect x="122" y="190" width="202" height="10" rx="5" fill="#E1CFAB"/>
  <rect x="122" y="222" width="132" height="10" rx="5" fill="#E1CFAB"/>
  <rect x="122" y="282" width="154" height="48" rx="14" fill="#C89B3C" fill-opacity=".86"/>
</svg>
