<svg width="900" height="540" viewBox="0 0 900 540" fill="none" xmlns="http://www.w3.org/2000/svg">
  <defs>
    <linearGradient id="bg" x1="80" y1="18" x2="820" y2="520" gradientUnits="userSpaceOnUse">
      <stop stop-color="#FFFDF8"/>
      <stop offset=".54" stop-color="#F3E5CA"/>
      <stop offset="1" stop-color="#E2C58E"/>
    </linearGradient>
    <filter id="shadow" x="-20%" y="-20%" width="140%" height="140%">
      <feDropShadow dx="0" dy="18" stdDeviation="18" flood-color="#0F172A" flood-opacity=".18"/>
    </filter>
  </defs>

  <rect width="900" height="540" fill="url(#bg)"/>
  <circle cx="728" cy="92" r="124" fill="#C89B3C" fill-opacity=".14"/>
  <circle cx="126" cy="100" r="96" fill="#FFFFFF" fill-opacity=".54"/>

  <g opacity=".28">
    <rect x="50" y="44" width="58" height="342" rx="12" fill="#F8EBD5"/>
    <rect x="126" y="70" width="48" height="326" rx="12" fill="#D1A657"/>
    <rect x="752" y="52" width="54" height="356" rx="12" fill="#FFF7E8"/>
    <rect x="820" y="78" width="48" height="330" rx="12" fill="#C89B3C"/>
  </g>

  <rect y="380" width="900" height="160" fill="#9F7437"/>
  <rect y="380" width="900" height="22" fill="#FFFFFF" fill-opacity=".12"/>

  <g filter="url(#shadow)">
    <rect x="92" y="324" width="360" height="56" rx="13" fill="#172033"/>
    <rect x="124" y="278" width="306" height="54" rx="12" fill="#263241"/>
    <rect x="156" y="232" width="252" height="58" rx="12" fill="#FFF7EA"/>
    <rect x="178" y="252" width="166" height="8" rx="4" fill="#D1B574"/>
    <rect x="178" y="274" width="114" height="8" rx="4" fill="#E1CFAB"/>
  </g>

  <g filter="url(#shadow)">
    <path d="M650 92v250" stroke="#C89B3C" stroke-width="11" stroke-linecap="round"/>
    <path d="M574 140h152" stroke="#C89B3C" stroke-width="11" stroke-linecap="round"/>
    <path d="M594 144 536 270M594 144l62 126" stroke="#8C6426" stroke-width="4.5" stroke-linecap="round"/>
    <path d="M704 144 642 270M704 144l58 126" stroke="#8C6426" stroke-width="4.5" stroke-linecap="round"/>
    <path d="M510 276c34 54 108 54 142 0H510Z" fill="#C89B3C"/>
    <path d="M644 276c34 54 108 54 142 0H644Z" fill="#C89B3C"/>
    <rect x="608" y="340" width="104" height="32" rx="9" fill="#8C6426"/>
  </g>

  <g transform="translate(94 164) rotate(-16 118 112)" filter="url(#shadow)">
    <rect x="44" y="112" width="212" height="36" rx="12" fill="#8B5B2F"/>
    <rect x="210" y="94" width="142" height="38" rx="14" fill="#6F4527"/>
    <rect x="204" y="64" width="70" height="70" rx="18" fill="#C89B3C"/>
    <path d="M232 75h88c18 0 32 14 32 32v4H232V75Z" fill="#A87534"/>
  </g>
</svg>
